<?xml version="1.0" encoding="UTF-8"?>
<svg id="Calque_1" xmlns="http://www.w3.org/2000/svg" version="1.1" viewBox="0 0 417.5 119">
  <!-- Generator: Adobe Illustrator 29.1.0, SVG Export Plug-In . SVG Version: 2.1.0 Build 142)  -->
  <path d="M396.7,61.2H11.9c-1.4,0-2.5-1.3-2.5-2.9,0-1.6,1.1-2.9,2.5-2.9h384.9c3.3,0,3.3,5.8,0,5.7Z" fill="#32302e"/>
  <path d="M96.6,7.9c-24.1,0-43.7,19.5-43.7,43.7h7.7c0-19.9,16.1-35.9,35.9-35.9s35.9,16.1,35.9,35.9h7.7c0-24.1-19.5-43.7-43.7-43.7Z" fill="#32302e"/>
  <path d="M42.5,37.2c-8,0-14.4,6.5-14.4,14.4h6.4c0-4.5,3.6-8.1,8.1-8.1s8.1,3.6,8.1,8.1h6.4c0-8-6.5-14.4-14.4-14.4Z" fill="#32302e"/>
  <path d="M65.4,51.6c0-17.2,14-31.2,31.2-31.2s31.2,14,31.2,31.2h-62.5Z" fill="#b70e0c"/>
  <path d="M71,108.7c24.1,0,43.7-19.5,43.7-43.7h-7.7c0,19.9-16.1,35.9-35.9,35.9s-35.9-16.1-35.9-35.9h-7.7c0,24.1,19.5,43.7,43.7,43.7Z" fill="#32302e"/>
  <path d="M125.1,79.5c8,0,14.4-6.5,14.4-14.4h-6.4c0,4.5-3.6,8.1-8.1,8.1s-8.1-3.6-8.1-8.1h-6.4c0,8,6.5,14.4,14.4,14.4Z" fill="#32302e"/>
  <path d="M102.2,65.1c0,17.2-14,31.2-31.2,31.2s-31.2-14-31.2-31.2h62.5Z" fill="#b70e0c"/>
  <g>
    <path d="M161.1,51.6c-1.4,0-2.7-.3-3.9-.9-1.2-.6-2.2-1.4-3-2.5-.4-.5-.7-1-.9-1.5-.2-.5-.3-.9-.3-1.3s.1-.8.4-1.1.6-.4,1.1-.4.6,0,.8.3c.2.2.5.5.7.9.5,1.2,1.2,2.1,2,2.7.8.6,1.8.9,3,.9s1.9-.2,2.7-.7,1.4-1.1,1.9-1.9c.4-.8.7-1.8.7-2.9s-.2-2.1-.7-2.8c-.5-.7-1.1-1.3-1.9-1.8-.7-.4-1.8-1-3.1-1.5-1.5-.7-2.7-1.3-3.7-1.9s-1.7-1.4-2.4-2.5c-.7-1.1-1-2.4-1-4.1s.3-2.8,1-4c.6-1.2,1.5-2.1,2.6-2.7,1.1-.6,2.4-1,3.8-1s2.7.3,3.8.9c1.1.6,2.1,1.4,2.7,2.5.4.4.6.9.9,1.3.2.4.3.8.3,1.2s-.1.8-.4,1.1-.7.4-1.1.4-.6,0-.9-.3c-.2-.2-.5-.5-.8-.9-.5-1.1-1.1-2-1.8-2.5-.7-.5-1.6-.8-2.8-.8s-1.5.2-2.2.6c-.7.4-1.2.9-1.5,1.6s-.5,1.5-.5,2.5.3,2,.8,2.8c.5.7,1.1,1.3,1.9,1.8.7.4,1.7,1,3,1.5,1.5.7,2.7,1.3,3.7,2,.9.6,1.7,1.4,2.4,2.5.7,1.1,1,2.4,1,4.1s-.4,3.1-1.1,4.4c-.7,1.3-1.7,2.3-3,3-1.3.7-2.7,1.1-4.3,1.1Z" fill="#b70e0c"/>
    <path d="M172.7,51c-.4,0-.7-.1-1-.4-.3-.3-.4-.6-.4-1s0-.4.1-.8c0-.1,0-.2,0-.3,0-.1,0-.2.1-.3l6.9-25.4c.2-.6.5-1.1.8-1.4.4-.3.8-.5,1.4-.5s1,.2,1.4.5c.3.3.6.8.8,1.4l6.9,25.4c0,.1,0,.3.1.4,0,.1,0,.3.1.4,0,.1,0,.3,0,.4,0,0,0,.2,0,.3,0,.4-.1.8-.4,1-.3.3-.6.4-1,.4s-.8-.1-1.1-.4c-.3-.2-.5-.6-.6-1.1l-2.1-8.1-.3-1.2-3.8-14.8h-.3l-3.8,14.8-.3,1.2-2.1,8.1c-.1.5-.3.8-.6,1.1-.3.2-.7.4-1.1.4Z" fill="#b70e0c"/>
    <path d="M195.2,51c-.5,0-.8-.1-1.1-.4-.3-.3-.4-.6-.4-1.1v-26.5c0-.5.2-.9.5-1.2.3-.3.7-.5,1.2-.5s.9.1,1.2.4c.3.2.6.6.7,1l9.8,20.8h.3v-20.7c0-.4.1-.8.4-1.1s.7-.4,1.1-.4.5,0,.8.2c.2.1.4.3.6.5.1.2.2.5.2.8v26.5c0,.5-.2.9-.5,1.2-.3.3-.7.5-1.2.5s-.9-.1-1.2-.4-.6-.6-.7-1l-9.8-20.8h-.3v20.7c0,.4-.1.8-.4,1.1-.3.3-.7.4-1.2.4Z" fill="#b70e0c"/>
    <path d="M215.4,51c-.4,0-.7-.1-1-.4-.3-.3-.4-.6-.4-1s0-.4.1-.8c0-.1,0-.2,0-.3,0-.1,0-.2.1-.3l6.9-25.4c.2-.6.5-1.1.8-1.4.4-.3.8-.5,1.4-.5s1,.2,1.4.5c.3.3.6.8.8,1.4l6.9,25.4c0,.1,0,.3.1.4,0,.1,0,.3.1.4,0,.1,0,.3,0,.4,0,0,0,.2,0,.3,0,.4-.1.8-.4,1-.3.3-.6.4-1,.4s-.8-.1-1.1-.4c-.3-.2-.5-.6-.6-1.1l-2.1-8.1-.3-1.2-3.8-14.8h-.3l-3.8,14.8-.3,1.2-2.1,8.1c-.1.5-.3.8-.6,1.1-.3.2-.7.4-1.1.4Z" fill="#b70e0c"/>
    <path d="M251.2,51.6c-1.7,0-3.2-.4-4.5-1.1-1.3-.7-2.3-1.8-3-3.1s-1.1-2.9-1.1-4.7v-13.1c0-1.7.4-3.3,1.1-4.6.7-1.3,1.7-2.4,3-3.1,1.3-.7,2.7-1.1,4.3-1.1s2.8.4,4.1,1.1c1.3.7,2.3,1.6,3,2.8.2.4.4.8.6,1.2.1.4.2.7.2,1,0,.5-.1.8-.4,1.1-.3.3-.6.4-1.1.4s-.7,0-.9-.2c-.2-.2-.5-.5-.7-.9-.5-1.2-1.1-2-1.9-2.6s-1.7-.9-2.8-.9-1.9.2-2.8.7-1.4,1.1-1.9,2c-.4.9-.7,2-.7,3.2v13.1c0,1.2.2,2.3.7,3.2.5.9,1.1,1.6,1.9,2,.8.5,1.8.7,2.9.7s2.1-.3,2.9-.9c.8-.6,1.5-1.5,2-2.7.2-.4.5-.8.7-.9.2-.2.5-.3.8-.3.4,0,.8.1,1.1.4.3.3.4.7.4,1.1s0,.6-.2,1-.3.8-.6,1.2c-.7,1.2-1.7,2.1-3,2.8-1.3.7-2.7,1.1-4.2,1.1Z" fill="#b70e0c"/>
    <path d="M271.3,51.6c-1.7,0-3.1-.4-4.4-1.1-1.3-.7-2.3-1.8-3.1-3.1-.7-1.3-1.1-2.9-1.1-4.7v-13.1c0-1.8.4-3.3,1.1-4.7.7-1.3,1.8-2.4,3.1-3.1,1.3-.7,2.8-1.1,4.4-1.1s3.2.4,4.5,1.1c1.3.7,2.3,1.8,3,3.1.7,1.3,1.1,2.9,1.1,4.7v13.1c0,1.8-.4,3.3-1.1,4.7-.7,1.3-1.7,2.4-3,3.1-1.3.7-2.8,1.1-4.5,1.1ZM271.3,48.7c1.1,0,2.1-.2,2.9-.7.8-.5,1.5-1.1,1.9-2,.5-.9.7-2,.7-3.2v-13.1c0-1.2-.2-2.3-.7-3.2-.5-.9-1.1-1.6-1.9-2-.8-.5-1.8-.7-2.9-.7s-2.1.2-2.9.7-1.5,1.1-1.9,2c-.5.9-.7,2-.7,3.2v13.1c0,1.2.2,2.3.7,3.2.5.9,1.1,1.6,1.9,2,.8.5,1.8.7,2.9.7Z" fill="#b70e0c"/>
    <path d="M287,51c-.5,0-.8-.1-1.1-.4-.3-.3-.4-.6-.4-1.1v-26.5c0-.5.2-.9.5-1.2.3-.3.7-.5,1.2-.5s.9.1,1.2.4c.3.2.6.6.7,1l9.8,20.8h.3v-20.7c0-.4.1-.8.4-1.1s.7-.4,1.1-.4.5,0,.8.2c.2.1.4.3.6.5.1.2.2.5.2.8v26.5c0,.5-.2.9-.5,1.2-.3.3-.7.5-1.2.5s-.9-.1-1.2-.4-.6-.6-.7-1l-9.8-20.8h-.3v20.7c0,.4-.1.8-.4,1.1-.3.3-.7.4-1.2.4Z" fill="#b70e0c"/>
    <path d="M314.2,51.6c-1.4,0-2.7-.3-3.9-.9-1.2-.6-2.2-1.4-3-2.5-.4-.5-.7-1-.9-1.5-.2-.5-.3-.9-.3-1.3s.1-.8.4-1.1.6-.4,1.1-.4.6,0,.8.3c.2.2.5.5.7.9.5,1.2,1.2,2.1,2,2.7.8.6,1.8.9,3,.9s1.9-.2,2.7-.7,1.4-1.1,1.9-1.9c.4-.8.7-1.8.7-2.9s-.2-2.1-.7-2.8c-.5-.7-1.1-1.3-1.9-1.8-.7-.4-1.8-1-3.1-1.5-1.5-.7-2.7-1.3-3.7-1.9s-1.7-1.4-2.4-2.5c-.7-1.1-1-2.4-1-4.1s.3-2.8,1-4c.6-1.2,1.5-2.1,2.6-2.7,1.1-.6,2.4-1,3.8-1s2.7.3,3.8.9c1.1.6,2.1,1.4,2.7,2.5.4.4.6.9.9,1.3.2.4.3.8.3,1.2s-.1.8-.4,1.1-.7.4-1.1.4-.6,0-.9-.3c-.2-.2-.5-.5-.8-.9-.5-1.1-1.1-2-1.8-2.5-.7-.5-1.6-.8-2.8-.8s-1.5.2-2.2.6c-.7.4-1.2.9-1.5,1.6s-.5,1.5-.5,2.5.3,2,.8,2.8c.5.7,1.1,1.3,1.9,1.8.7.4,1.7,1,3,1.5,1.5.7,2.7,1.3,3.7,2,.9.6,1.7,1.4,2.4,2.5.7,1.1,1,2.4,1,4.1s-.4,3.1-1.1,4.4c-.7,1.3-1.7,2.3-3,3-1.3.7-2.7,1.1-4.3,1.1Z" fill="#b70e0c"/>
    <path d="M335.1,51.6c-1.6,0-3.1-.3-4.3-1-1.2-.7-2.2-1.7-2.9-3s-1-2.8-1-4.4v-20.3c0-.4.1-.8.4-1.1s.6-.4,1.1-.4.9.1,1.2.4c.3.3.4.6.4,1.1v20.3c0,1.2.2,2.2.6,3,.4.8,1,1.5,1.8,1.9.8.4,1.7.6,2.7.6s1.9-.2,2.7-.6c.8-.4,1.4-1.1,1.8-1.9.4-.8.6-1.8.6-3v-20.3c0-.4.1-.8.4-1.1s.6-.4,1.1-.4.9.1,1.2.4.4.6.4,1.1v20.3c0,1.7-.3,3.2-1,4.4-.7,1.3-1.6,2.3-2.9,3s-2.7,1-4.3,1Z" fill="#b70e0c"/>
    <path d="M350.7,50.7c-.5,0-.8-.1-1.1-.4-.3-.3-.4-.6-.4-1v-26.5c0-.4.1-.8.4-1.1.3-.3.7-.4,1.1-.4s.6,0,.8.2c.2.1.4.3.6.5.1.2.2.5.2.8v25h9.1c.5,0,.9.1,1.1.4.3.3.4.6.4,1s-.1.8-.4,1c-.3.3-.7.4-1.1.4h-10.7Z" fill="#b70e0c"/>
    <path d="M362,24.5c-.4,0-.8-.1-1.1-.4-.3-.3-.4-.6-.4-1s.1-.8.4-1.1c.3-.3.7-.4,1.1-.4h13.5c.5,0,.9.1,1.2.4s.4.6.4,1.1-.1.8-.4,1c-.3.3-.7.4-1.2.4h-13.5ZM368.8,51c-.3,0-.6,0-.8-.2-.2-.1-.4-.3-.5-.5-.1-.2-.2-.5-.2-.8v-26.4h3.1v26.4c0,.4-.1.8-.4,1.1-.3.3-.7.4-1.1.4Z" fill="#b70e0c"/>
  </g>
</svg>